# xmcd CD database file
#
# Track frame offsets:
#	150
#	14980
#	29978
#	43981
#	54602
#	67832
#	75934
#	89102
#	99731
#	105326
#	118283
#	132908
#	149268
#	164720
#	172311
#	183950
#	192906
#	197598
#	207631
#	215332
#
# Disc length: 3017 seconds
#
# Revision: 0
# Processed by: cddbd v1.4PL0 Copyright (c) Steve Scherf et al.
# Submitted via: CDex 1.50
#
DISCID=3d0bc714
DTITLE=Billie Holiday - Billie Holiday
DYEAR=1900
DGENRE=Jazz
TTITLE0=Lover Man
TTITLE1=Don't Explain
TTITLE2=God Bless The Child
TTITLE3=Aint Nobody's Business
TTITLE4=He's Funny That Way
TTITLE5=Miss Brown to You
TTITLE6=Billie's Blues
TTITLE7=No Detour Ahead
TTITLE8=You're Driving Me Crazy
TTITLE9=My Man
TTITLE10=Don't Be Late
TTITLE11=I Cover The Waterfront
TTITLE12=Strange Fruit
TTITLE13=I Loves You Porgy
TTITLE14=Nice Work if You Can Get It
TTITLE15=Please Don't Talk About Me When I'm Gone
TTITLE16=Ghost of a Chance
TTITLE17=Jeepers Creepers
TTITLE18=Everything Happens to Me
TTITLE19=What a Little Moonlight Can Do
EXTD=
EXTT0=
EXTT1=
EXTT2=
EXTT3=
EXTT4=
EXTT5=
EXTT6=
EXTT7=
EXTT8=
EXTT9=
EXTT10=
EXTT11=
EXTT12=
EXTT13=
EXTT14=
EXTT15=
EXTT16=
EXTT17=
EXTT18=
EXTT19=
PLAYORDER=
